<?xml version="1.0" encoding="UTF-8"?>
<svg id="Layer_1" data-name="Layer 1" xmlns="http://www.w3.org/2000/svg" viewBox="0 0 260 260">
  <defs>
    <style>
      .cls-1 {
        fill: #ececec;
      }

      .cls-1, .cls-2, .cls-3, .cls-4, .cls-5, .cls-6, .cls-7, .cls-8, .cls-9 {
        stroke-width: 0px;
      }

      .cls-2 {
        fill: #969797;
      }

      .cls-3 {
        fill: #74b7cb;
      }

      .cls-4 {
        fill: #666b7f;
      }

      .cls-5 {
        fill: #a0a0a0;
      }

      .cls-6 {
        fill: #8ee2fa;
      }

      .cls-7 {
        fill: #d0555f;
      }

      .cls-8 {
        fill: #444;
      }

      .cls-9 {
        fill: #e0e0e1;
      }
    </style>
  </defs>
  <circle class="cls-7" cx="130" cy="130" r="130"/>
  <path class="cls-7" d="m125,2c3.33,0,6.67,0,10,0,1.63.21,3.26.42,4.89.63,1.71.07,3.41.13,5.12.2,1.97.33,3.93.67,5.9,1,24.95,4.1,46.77,14.73,65.37,31.79,23.34,21.41,36.71,48.05,40.9,79.37.07,1.69.13,3.39.2,5.08.21,1.98.42,3.95.63,5.93v8c-.21,1.98-.42,3.95-.63,5.93l-.2,5.08c-.08.49-.16.98-.23,1.48-4.93,34.29-20.8,62.4-47.87,84.03-18.77,14.99-40.31,23.53-64.06,26.65-1.67.28-3.34.55-5.01.83h-20c-1.67-.28-3.34-.55-5.01-.83-1.64-.28-3.27-.58-4.91-.84-30.02-4.81-55.18-18.63-75.47-41.16-18-19.98-28.29-43.56-31.78-70.17-.06-1.7-.13-3.39-.19-5.09-.21-1.97-.43-3.94-.64-5.92,0-2.67,0-5.33,0-8,.21-1.97.43-3.94.64-5.92.06-1.7.13-3.39.19-5.09.08-.49.16-.98.23-1.48C7.99,79.22,23.86,51.11,50.94,29.48,69.7,14.49,91.24,5.95,114.99,2.83c1.72-.08,3.43-.16,5.15-.24,1.62-.2,3.24-.39,4.86-.59Zm-1.83,195.93c.29,1.1.64,2.19.87,3.31,1.22,5.91,2,11.95,5.18,18.55.85-2.46,1.48-3.91,1.86-5.43,1.36-5.46,2.64-10.93,3.94-16.4,5.61.04,11.21.08,16.82.12.31,1.12.6,2.24.93,3.35,2.97,10.04,6.07,20.05,8.86,30.14,1.18,4.27,1.7,8.72,2.53,13.12,48.81-12.84,94.66-65.24,84.69-132.87C239.82,50.61,182.73,2.07,113.83,11.07,56.08,18.62,3.63,71.8,11.05,143.11c3.11,29.88,16.16,55.05,38.16,75.37,12.92,11.94,27.77,20.81,45.35,25.93,2.48-16.41,7.03-31.5,12.43-46.35,5.39-.04,10.79-.08,16.18-.12Z"/>
  <path class="cls-4" d="m106.99,198.05c-5.4,14.85-9.96,29.94-12.43,46.35-17.58-5.12-32.43-13.99-45.35-25.93-22-20.33-35.05-45.5-38.16-75.37C3.63,71.8,56.08,18.62,113.83,11.07c68.9-9,126,39.53,135.02,100.75,9.97,67.63-35.88,120.03-84.69,132.87-.83-4.4-1.35-8.85-2.53-13.12-2.79-10.09-5.89-20.1-8.86-30.14-.33-1.11-.62-2.24-.93-3.35q5.66-.36,6.22-6.57c1.53-.28,3.06-.57,4.59-.85.81,3.67,4.23,4.95,6.63,7.14,7.23,6.6,14.51,13.14,21.82,19.66.94.84,2.12,1.41,3.75,2.46.41-4.06,1.09-7.49,1.03-10.91-.13-8.45-.26-16.93-1.04-25.34-.72-7.77-2.31-15.47-6.19-22.4-2.84-5.07-6.06-9.91-11.75-12.34.21-1.97.39-3.95.63-5.92,1.71-14.21,2.67-28.42-.59-42.55-2.39-10.37-5.67-20.42-11.43-29.49-.83-1.8-1.54-3.67-2.52-5.39-6.03-10.57-13.32-20.24-21.42-29.28-3.96-4.41-8.33-8.45-12.68-12.81-1.48,1.18-2.64,1.85-3.49,2.8-6.53,7.28-13.29,14.38-19.42,22-5.61,6.97-10.83,14.3-14.27,22.69-8.58,14.8-13.42,30.78-13.38,47.84.03,10.73,1.66,21.47,2.57,32.2-.99.53-2.14.88-2.96,1.61-4.18,3.74-6.97,8.45-8.86,13.66-3.24,8.95-4.68,18.26-5.12,27.75-.15,3.14-.58,6.26-.74,9.4-.27,5.34-.5,10.69,1.48,16.48,7.3-6.67,14.2-12.86,20.96-19.21,3.25-3.06,6.22-6.42,9.32-9.65,1.65.15,3.31.31,4.96.46q.22,6.35,6.56,6.52c.16,0,.32.01.48.02Z"/>
  <path class="cls-8" d="m135.02,197.96c-1.31,5.47-2.58,10.94-3.94,16.4-.38,1.52-1.01,2.97-1.86,5.43-3.19-6.6-3.96-12.63-5.18-18.55-.23-1.11-.57-2.21-.87-3.31-.14-2.37-.29-4.75-.43-7.12-.16-8.74-.55-17.49-.38-26.22.09-4.75.94-9.51,1.84-14.19.52-2.72,1.62-5.45,4.8-6.38,4.58,3.21,5.63,8.28,5.9,13.16.63,11.25.58,22.53.81,33.81-.23,2.33-.46,4.65-.69,6.98Z"/>
  <path class="cls-2" d="m122.74,190.81c.14,2.37.29,4.75.43,7.12-5.39.04-10.79.08-16.18.12-.16,0-.32-.02-.48-.02q-6.34-.17-6.56-6.52c2.48-.08,4.96-.18,7.44-.25,5.12-.15,10.24-.3,15.36-.45Z"/>
  <path class="cls-2" d="m135.02,197.96c.23-2.33.46-4.65.69-6.98,7.45.18,14.9.35,22.35.53q-.56,6.21-6.22,6.57c-5.61-.04-11.21-.08-16.82-.12Z"/>
  <path class="cls-1" d="m122.74,190.81c-5.12.15-10.24.29-15.36.45-2.48.07-4.96.17-7.44.25-1.65-.15-3.31-.31-4.96-.46-7.15-12.48-11.23-26.05-14.08-40.04-.91-10.73-2.55-21.46-2.57-32.2-.04-17.06,4.8-33.05,13.38-47.84,5.03,1.4,10.06,2.79,15.09,4.19.46,3.42.26,7.11,1.51,10.2,3.68,9.1,11.09,13.21,20.66,13.8.01,14.95.02,29.9.03,44.85-3.18.93-4.28,3.66-4.8,6.38-.9,4.68-1.75,9.45-1.84,14.19-.17,8.73.22,17.48.38,26.22Z"/>
  <path class="cls-9" d="m129,144.02c-.01-14.95-.02-29.9-.03-44.85,3.62-1.12,7.57-1.64,10.78-3.47,7.8-4.44,11.11-11.56,10.42-20.51,5.11-1.4,10.22-2.81,15.33-4.21,5.76,9.08,9.05,19.13,11.43,29.49,3.25,14.12,2.3,28.34.59,42.55-.24,1.97-.42,3.95-.63,5.92-.19.46-.48.9-.56,1.38-2.38,14.19-6.9,27.66-13.7,40.35-1.53.28-3.06.57-4.59.85-7.45-.18-14.9-.35-22.35-.53-.23-11.27-.18-22.56-.81-33.81-.27-4.88-1.32-9.95-5.9-13.16Z"/>
  <path class="cls-7" d="m165.51,70.97c-5.11,1.4-10.22,2.81-15.33,4.21-.69-12.72-11.78-20.04-21.42-20.19-9.39-.14-21.1,6.84-21.96,20.16-5.03-1.4-10.06-2.79-15.09-4.19,3.44-8.39,8.66-15.72,14.27-22.69,6.13-7.61,12.89-14.72,19.42-22,.85-.95,2.01-1.63,3.49-2.8,4.34,4.36,8.72,8.4,12.68,12.81,8.1,9.04,15.39,18.71,21.42,29.28.98,1.72,1.68,3.59,2.52,5.39Z"/>
  <path class="cls-8" d="m162.65,190.66c6.8-12.69,11.32-26.15,13.7-40.35.08-.48.37-.92.56-1.38,5.68,2.43,8.9,7.26,11.75,12.34,3.89,6.93,5.47,14.64,6.19,22.4.78,8.41.9,16.89,1.04,25.34.05,3.42-.62,6.85-1.03,10.91-1.63-1.06-2.81-1.63-3.75-2.46-7.3-6.52-14.59-13.06-21.82-19.66-2.4-2.19-5.82-3.46-6.63-7.14Z"/>
  <path class="cls-8" d="m80.91,151.01c2.85,13.99,6.92,27.56,14.08,40.04-3.1,3.23-6.06,6.59-9.32,9.65-6.75,6.35-13.66,12.54-20.96,19.21-1.98-5.79-1.76-11.14-1.48-16.48.16-3.14.59-6.26.74-9.4.44-9.49,1.88-18.8,5.12-27.75,1.88-5.21,4.68-9.92,8.86-13.66.81-.73,1.96-1.08,2.96-1.61Z"/>
  <path class="cls-5" d="m106.8,75.16c.86-13.32,12.57-20.31,21.96-20.16,9.64.15,20.73,7.47,21.42,20.19.68,8.95-2.63,16.07-10.42,20.51-3.21,1.83-7.17,2.35-10.78,3.47-9.57-.59-16.98-4.69-20.66-13.8-1.25-3.1-1.05-6.79-1.51-10.2Zm37.26,1.98c.93-10.02-7.64-16.14-15.67-16.08-8.16.07-15.58,6.33-15.65,15.79-.07,10.03,7.84,16.14,15.86,16.08,8.16-.07,16.29-6.32,15.45-15.79Z"/>
  <path class="cls-3" d="m144.06,77.14c.83,9.47-7.3,15.73-15.45,15.79-8.02.07-15.93-6.05-15.86-16.08.07-9.46,7.49-15.73,15.65-15.79,8.03-.06,16.6,6.05,15.67,16.08Zm-21.65-10.94c-1.93-.04-4.16,2.14-4.2,4.09-.04,2.01,2.02,3.78,4.34,3.71,2.14-.07,3.32-1.13,3.44-3.31.12-2.29-1.59-4.44-3.57-4.48Z"/>
  <path class="cls-6" d="m122.41,66.2c1.99.04,3.69,2.19,3.57,4.48-.11,2.19-1.29,3.25-3.44,3.31-2.32.07-4.38-1.69-4.34-3.71.04-1.95,2.28-4.12,4.2-4.09Z"/>
</svg>