<?xml version="1.0" encoding="UTF-8"?>
<svg id="Layer_1" data-name="Layer 1" xmlns="http://www.w3.org/2000/svg" viewBox="0 0 240 240">
  <defs>
    <style>
      .cls-1 {
        fill: #393c3f;
      }

      .cls-1, .cls-2 {
        stroke-width: 0px;
      }

      .cls-2 {
        fill: #f1f2f3;
      }
    </style>
  </defs>
  <rect class="cls-2" width="240" height="240" rx=".82" ry=".82"/>
  <path class="cls-1" d="m183.05,81.59l-73.62-42.57c-1.31-.76-2.96.19-2.96,1.71v65.74c0,1.14.92,2.06,2.06,2.06h21.8c1.14,0,2.06-.92,2.06-2.06v-19.16c0-1.4,1.51-2.28,2.73-1.59l22.03,12.42c.8.45,1.29,1.29,1.29,2.2v70.44c0,1.56,1.72,2.5,3.03,1.67l22.17-14.08c.6-.38.96-1.04.96-1.74v-72.37c0-1.09-.58-2.11-1.53-2.65Z"/>
  <path class="cls-1" d="m130.36,132.75h-21.8c-1.14,0-2.06.92-2.06,2.06v19.16c0,1.4-1.51,2.28-2.73,1.59l-22.03-12.42c-.8-.45-1.29-1.29-1.29-2.2v-70.44c0-1.56-1.72-2.5-3.03-1.67l-22.17,14.08c-.6.38-.96,1.04-.96,1.74v72.37c0,1.09.58,2.11,1.53,2.65l73.62,42.57c1.31.76,2.96-.19,2.96-1.71v-65.74c0-1.14-.92-2.06-2.06-2.06Z"/>
</svg>