<?xml version="1.0" encoding="UTF-8"?>
<svg id="Layer_1" data-name="Layer 1" xmlns="http://www.w3.org/2000/svg" viewBox="0 0 130.28 163.77">
  <defs>
    <style>
      .cls-1 {
        fill: #393c3f;
        stroke-width: 0px;
      }
    </style>
  </defs>
  <path class="cls-1" d="m128.75,42.84L55.12.27c-1.31-.76-2.96.19-2.96,1.71v65.74c0,1.14.92,2.06,2.06,2.06h21.8c1.14,0,2.06-.92,2.06-2.06v-19.16c0-1.4,1.51-2.28,2.73-1.59l22.03,12.42c.8.45,1.29,1.29,1.29,2.2v70.44c0,1.56,1.72,2.5,3.03,1.67l22.17-14.08c.6-.38.96-1.04.96-1.74V45.49c0-1.09-.58-2.11-1.53-2.65Z"/>
  <path class="cls-1" d="m76.06,94h-21.8c-1.14,0-2.06.92-2.06,2.06v19.16c0,1.4-1.51,2.28-2.73,1.59l-22.03-12.42c-.8-.45-1.29-1.29-1.29-2.2V31.75c0-1.56-1.72-2.5-3.03-1.67L.96,44.16c-.6.38-.96,1.04-.96,1.74v72.37c0,1.09.58,2.11,1.53,2.65l73.62,42.57c1.31.76,2.96-.19,2.96-1.71v-65.74c0-1.14-.92-2.06-2.06-2.06Z"/>
</svg>