<?xml version="1.0" encoding="UTF-8"?>
<svg id="Layer_1" data-name="Layer 1" xmlns="http://www.w3.org/2000/svg" viewBox="0 0 256 256">
  <defs>
    <style>
      .cls-1 {
        fill: #0160fe;
      }

      .cls-1, .cls-2 {
        stroke-width: 0px;
      }

      .cls-2 {
        fill: #fff;
      }
    </style>
  </defs>
  <rect class="cls-1" width="256" height="256" rx="54" ry="54"/>
  <path class="cls-2" d="m94.17,74.35c-6.7,7.28-9.74,15.37-8.7,24.87.87,7.98,4.82,14.32,10.48,19.88,22.79,22.44,45.49,44.98,68.22,67.48,1.04,1.03,2.16,1.98,3.79,3.47,2.12-3.38,4.4-6.28,5.89-9.53,5.38-11.7,2.74-24.64-7.01-34.35-23.49-23.39-47.08-46.69-70.64-70.01-.47-.46-.99-.88-2.04-1.81Z"/>
  <path class="cls-2" d="m152.96,204.28c-1.02-1.11-1.77-1.99-2.59-2.8-16.92-16.78-33.84-33.55-50.77-50.31-.83-.82-1.69-1.62-2.61-2.32-6.43-4.88-15.55-4.15-20.87,1.65-5.37,5.85-5.68,14.49.07,20.37,11.63,11.92,23.27,23.88,35.59,35.08,11.61,10.56,29.35,9.51,41.19-1.67Z"/>
  <path class="cls-2" d="m108.95,60.26c.49.58.78.99,1.13,1.34,16.65,16.51,33.29,33.02,49.96,49.51,1.06,1.05,2.19,2.07,3.44,2.87,5.2,3.32,10.67,3.64,16.05.62,5.39-3.02,7.97-7.79,7.76-14.03-.15-4.44-2.22-7.9-5.28-10.93-8.28-8.18-16.53-16.4-24.82-24.57-2.48-2.45-4.92-4.98-7.63-7.16-13.18-10.62-31.57-7.73-40.61,2.34Z"/>
  <path class="cls-2" d="m58.31,116.4c-8.37-.13-15.38,6.66-15.5,15.01-.12,8.47,6.45,15.34,14.91,15.56,8.58.22,15.83-6.73,15.88-15.22.05-8.23-6.92-15.22-15.29-15.35Z"/>
  <path class="cls-2" d="m235.75,178.37c-5.44,0-10.42-.21-15.36.07-3.57.2-6.14,2.27-7.56,5.67-2.8,6.67.75,13.08,7.91,14.01,2.63.34,5.31.3,7.96.58,2.06.21,3.37,1.38,3.55,3.53.21,2.39-1.05,3.85-3.26,4.31-1.61.34-3.3.32-4.96.34-3.6.05-7.19.01-10.78.01v6.34c5.52,0,10.84.14,16.15-.04,4.93-.17,7.98-2.88,9.2-7.65,1.83-7.17-2.76-13.42-10.22-13.84-1.99-.11-4.01.02-5.99-.17-1.78-.17-3.29-.99-3.27-3.07.02-2.03,1.45-2.94,3.23-3.19,1.47-.21,2.99-.16,4.49-.17,2.93-.02,5.87,0,8.91,0v-6.73Z"/>
  <path class="cls-2" d="m207.94,195.99c0-2.66.16-5.34-.03-7.99-.36-4.88-3.43-8.43-8.25-9.33-2.25-.42-4.66-.51-6.93-.24-5.36.64-8.89,4.09-9.25,9.5-.36,5.3-.38,10.66.02,15.96.42,5.59,4.3,8.94,9.91,9.31,1.66.11,3.33.1,4.99-.04,5.5-.47,9.16-4.15,9.54-9.69.17-2.49.03-4.99.02-7.49Z"/>
  <path class="cls-1" d="m189.86,195.57c0-2.15-.11-4.31.03-6.45.21-3.4,1.49-4.52,5.05-4.74,4-.25,6.2.75,6.4,3.8.35,5.09.36,10.25-.02,15.34-.23,3.18-1.9,3.83-6.4,3.64-3.49-.15-4.75-1.07-4.99-4.14-.2-2.47-.04-4.96-.04-7.44-.01,0-.02,0-.03,0Z"/>
</svg>