<?xml version="1.0" encoding="UTF-8"?>
<svg xmlns="http://www.w3.org/2000/svg" viewBox="0 0 1024 1024">
  <rect width="1024" height="1024" fill="#87eb00"/>

  <polygon points="891.72 653.09 946.74 392.69 922.51 348.07 131.65 348.07 76.73 608.09 101.14 653.09 648.28 653.09 684.26 719.43 720.36 719.43 734.39 653.09 891.72 653.09"
           fill="#000000"/>

  <g fill="#ffffff">
    <polygon points="260.57 378.97 328.54 378.97 322.23 408.82 247.65 494.17 288.36 569.23 283.41 592.57 221.22 592.57 190.14 535.26 178.03 592.57 109.68 592.57 154.79 378.97 223.14 378.97 211.22 435.43 260.57 378.97"/>
    <polygon points="357.14 378.97 499.6 378.97 513.23 404.11 478.96 566.4 456.07 592.57 314.26 592.57 300.46 567.14 334.83 404.51 357.14 378.97"/>
    <polygon points="548.09 378.97 690.55 378.97 704.18 404.11 669.9 566.4 647.03 592.57 505.2 592.57 491.41 567.14 525.78 404.51 548.09 378.97"/>
    <polygon points="723.92 378.97 792.27 378.97 780.34 435.43 829.69 378.97 897.66 378.97 891.34 408.82 816.75 494.17 857.46 569.23 852.53 592.57 790.34 592.57 759.26 535.26 747.15 592.57 678.8 592.57 723.92 378.97"/>
  </g>

  <g fill="#000000">
    <polygon points="385 522.3 413.24 522.3 428.68 449.24 400.42 449.24 385 522.3"/>
    <polygon points="575.96 522.3 604.2 522.3 619.64 449.24 591.39 449.24 575.96 522.3"/>
  </g>
</svg>
