<?xml version="1.0" encoding="UTF-8"?>
<svg id="Layer_1" data-name="Layer 1" xmlns="http://www.w3.org/2000/svg" viewBox="0 0 513 513">
  <defs>
    <style>
      .cls-1 {
        fill: #fff;
        font-family: SegoeUIVariable-BoldSmall, 'Segoe UI Variable';
        font-size: 121.39px;
        font-variation-settings: 'wght' 700, 'opsz' 8;
        font-weight: 700;
      }

      .cls-2 {
        fill: #2e2e2e;
        stroke: #000;
        stroke-miterlimit: 10;
      }

      .cls-3 {
        fill: #9c1616;
        stroke-width: 0px;
      }
    </style>
  </defs>
  <rect class="cls-2" x=".5" y=".5" width="512" height="512" rx="45" ry="45"/>
  <path class="cls-3" d="m120.87,103.26c-5.82,0-11.64.14-17.45-.05-4.19-.14-6.97,1.25-9.46,4.7-5.7,7.87-13.77,10.55-22.09,8.08-8.84-2.62-14.03-9.2-14.34-18.18-.29-8.54,4.65-15.98,12.51-18.83,8.17-2.96,17.88-.93,22.87,6.2,3.57,5.09,7.65,6.2,13.44,6.05,12.3-.32,24.62.13,36.91-.2,5.4-.14,9.28,1.4,12.77,5.37,10.55,12,21.39,23.78,32.11,35.64.59.65,1.12,1.35,1.75,1.96,2.35,2.3,4.39,5.78,7.19,6.5,2.66.69,6.11-1.56,9.24-2.43,17.08-4.73,32.28-2,44.93,10.64,5.85,5.85,5.91,5.93,11.54-.29,13-14.35,33.2-16.95,49.66-10.15,6.29,2.6,6.3,2.7,11.01-2.52,12.19-13.49,24.43-26.94,36.45-40.57,2.75-3.11,5.72-4.26,9.86-4.21,13.42.18,26.85-.09,40.27.15,4.92.09,8.44-1.02,11.15-5.34,3.46-5.51,8.86-8.21,15.76-8.18,9.14.03,16.12,4.04,19.2,11.45,3.01,7.26.72,16.48-4.98,22.12-6.35,6.3-22.24,7.98-29.52-2.74-3.27-4.81-6.98-5.73-12.25-5.61-11.4.26-22.82.2-34.23.02-4.18-.07-7.16,1.28-9.85,4.35-11.11,12.68-22.32,25.28-33.68,37.75-2.73,2.99-3.44,5.22-1.07,8.99,2.62,4.16,4.12,9.02,5.78,13.68,1.06,2.98,2.64,5.14,5.42,7,5.49,3.66,10.6,7.85,15.86,11.82,1.22.92,2.3,2.13,3.68,2.72,8.1,3.48,22.28.5,27.67-6.27,1.54-1.94,1.73-5.15,1.87-7.81.47-9.09,5.67-16.3,13.85-18.67,11.71-3.39,23.03,2.62,26.14,13.9,2.91,10.54-4.26,21.81-15.74,23.84-3.55.63-7.8.35-11.06-1-3.98-1.65-6.75-1.12-9.69,1.37-1.01.85-2.18,1.52-3.18,2.37-3.87,3.28-8.22,4.71-13.5,4.54-8.31-.27-8.18-.01-7.87,7.66.2,5.04,1.58,9.61,3.52,14.3,2.88,6.97,5.04,14.26,6.86,21.56.92,3.69,2.68,5.13,6.35,5.12,7.38-.04,14.77-.13,22.15.03,4.01.09,5.89-2.39,8-4.98,6.43-7.91,15.65-9.61,25.21-5.08,6.91,3.28,11.88,11.81,10.85,18.66-1.25,8.34-5.69,14.46-14.29,17.12-8.18,2.53-17.38.5-21.51-6.44-3.94-6.63-8.95-7.98-15.93-7.38-4.88.42-9.84.16-14.76.08-3.85-.06-5.99,1.3-7.24,5.15-2,6.12-4.98,11.94-7.28,17.99-.71,1.87-.94,4.11-.67,6.09.69,5.11,1.99,10.15,2.62,15.26.4,3.3,2.05,4.5,5.23,4.47,4.25-.03,8.52.26,12.75-.04,4.78-.33,8.77,1.08,12.36,3.96,1.38,1.1,2.88,2.05,4.25,3.16,2.96,2.4,5.77,3.01,9.78,1.59,10.37-3.66,20.56.29,25.19,9.06,3.54,6.71,2.36,16.43-2.64,21.91-5.18,5.68-15.51,8.05-22.85,5.25-7.42-2.83-12.07-9.63-12.41-17.69-.11-2.67.07-6.21-1.54-7.78-3.52-3.42-7.42-7.1-13-7.32-4.91-.19-9.84-.02-14.76-.06-3.27-.02-5.41,1.45-6.88,4.24-5.7,10.82-15.15,16.77-27.31,18.75-4.03.66-6.12,2.46-7.73,6.05-1.92,4.3-4.55,8.37-7.39,12.18-1.93,2.59-2.04,4.42.11,6.79,11.33,12.5,22.61,25.04,33.84,37.63,2.25,2.53,4.94,3.35,8.29,3.3,8.95-.12,17.9-.18,26.85.03,4.05.1,6.47-1.39,8.75-4.61,6.08-8.6,16.87-11.12,26-6.53,8.26,4.15,12.24,12.73,10.18,21.93-1.95,8.71-9.2,14.09-18.93,14.45-7.36.27-13.33-2.2-17.08-8.23-2.72-4.39-6.33-5.4-11.2-5.26-9.84.29-19.69.03-29.52.34-4.72.15-7.93-1.56-10.93-4.95-11.9-13.45-24.08-26.67-36.02-40.09-2.49-2.8-4.66-3.71-8.62-2.52-17.93,5.39-33.46,1.26-46.37-11.89-.92-.94-1.59-2.34-2.7-2.81-1.08-.46-2.66-.24-3.88.12-.68.2-1.05,1.33-1.61,2-12.15,14.64-31.21,20.17-49.3,13.78-4.06-1.44-6.19-.38-8.6,2.32-10.95,12.25-22.26,24.21-32.84,36.75-4.76,5.64-10.01,7.73-17.32,7.31-8.47-.48-17,.02-25.49-.19-4.9-.12-8.24,1.35-11.16,5.47-5.5,7.75-17.66,10.32-25.79,6.16-8.51-4.35-12.47-14.67-9.35-23.98,2.29-6.8,7.16-10.98,14.21-12.36,7.71-1.51,15.31-.19,19.76,6.45,3.8,5.66,8.5,6.64,14.67,6.37,7.37-.32,14.77-.19,22.15-.03,3.63.08,6.4-1,8.81-3.67,10.86-12.04,21.81-24,32.79-35.94,2.29-2.49,2.37-4.57.42-7.45-2.67-3.94-4.81-8.23-6.87-12.51-1.21-2.51-2.47-4.41-5.63-4.8-13.94-1.72-24.12-8.55-29.99-21-1.17-2.47-3.11-3.55-5.82-3.56-4.7,0-9.41-.21-14.09.04-6.06.31-10.29,4.14-13.9,8.2-1.3,1.46-.83,4.48-.94,6.8-.36,7.45-3.26,13.58-10.49,16.78-7.35,3.24-14.8,3.07-21.65-1.63-6.57-4.52-9.46-13.43-7.07-21.48,2.26-7.62,9.53-13.14,17.9-13.14,3.28,0,6.7.46,9.8,1.46,2.65.85,4.85,1.02,6.78-.87,7.9-7.76,17.64-9.04,28.34-8.32,7.75.52,7.7-.42,9.07-7.79,1.68-9.06,2.51-17.55-3.65-25.66-2.12-2.79-2.52-6.85-3.43-10.4-.8-3.12-2.33-4.93-5.93-4.89-7.38.09-14.77.07-22.15.01-3.37-.03-4.95,1.93-6.82,4.33-2.47,3.19-5.34,6.56-8.85,8.45-9.03,4.88-20.47,1.63-25.83-6.55-7.05-10.76-1.66-21.96,4.93-26.58,8.5-5.96,20.57-4.96,27.12,3.15,3.33,4.13,6.87,5.5,11.94,5.28,6.48-.28,12.98-.17,19.46-.06,3.53.06,5.09-1.54,6.09-4.69,2.61-8.21,5.93-16.22,8.27-24.49,1.51-5.34,1.91-10.99,2.51-16.53.09-.85-1.35-1.96-2.26-2.75-.41-.36-1.31-.4-1.94-.29-8.97,1.6-16.16-1.8-22.44-7.52-2.93-2.67-5.7-1.25-8.68-.3-9.42,2.98-17.48.57-23.19-6.81-5.07-6.56-5.25-15.6-.45-22.42,4.89-6.94,13.55-10.12,21.7-7.98,8.77,2.31,14.71,9.2,15.31,17.58.24,3.31-1.21,7.01,2.18,9.69,4.54,3.58,9.06,7.08,15.53,6.48,2.66-.24,5.37-.08,8.05-.09,3.76-.02,6.78-1.46,9.63-3.87,4.18-3.55,8.52-6.98,13.18-9.9,3.27-2.05,4.85-4.63,6.04-8.06,1.76-5.06,3.82-10.09,6.46-14.76,1.71-3.02,1.47-5.02-.73-7.44-6.64-7.29-13.14-14.69-19.74-22.02-4.84-5.37-9.87-10.58-14.57-16.06-2.96-3.45-6.44-4.98-11.08-4.81-6.03.22-12.08.05-18.12.06Zm142.82,154.35c0,26.95-.05,53.89.02,80.84.04,18.26,13.99,31.28,32.89,30.85,14.48-.32,26.85-10.53,29.71-24.5,2.82-13.79-4.84-27.81-18.24-33.38-4.61-1.92-5.07-1.74-8.16,2.51-2.18,3-4.14,6.22-6.77,8.8-3.42,3.35-7.29,6.3-11.19,9.14-2.21,1.61-4.79,1.26-6.6-.88-1.97-2.33-1.69-4.84.36-7.03,1.19-1.27,2.7-2.25,4.02-3.41,2.14-1.88,4.52-3.58,6.32-5.73,8.93-10.71,11.25-22.72,7.01-35.85-1-3.08-2.37-6.05-3.38-9.12-1.21-3.71-.08-6.4,3.03-7.43,3.52-1.16,5.46.8,6.94,3.48.53.95,1.03,1.92,1.43,2.92,2.81,7.09,5.23,14.4,4.34,22.02-.75,6.37,1.88,9.25,7.77,11.44,8.63,3.21,15.04,9.3,19.03,17.39,1.8,3.65,3.07,7.59,4.15,11.51,1.56,5.64,2.55,6.25,8.44,4.35,7.47-2.41,12.6-7.09,15.43-14.2,2.38-5.99,2.99-12.13,2.05-18.43-1.12-7.42-3.44-14.37-9.77-19.26-5.66-4.37-12.1-6.24-19.44-4.81-2.81.55-5.14-.95-5.4-3.59-.18-1.82.63-4.33,1.96-5.58,2.88-2.72,6.89-3.05,10.72-2.42,6.43,1.05,12.57,2.92,17.91,6.8,4.4,3.2,5.49,2.85,7.58-2.18,4.32-10.42,4.2-21.03,1.02-31.66-.36-1.22-1.76-2.15-2.67-3.21-.91,1.3-2.47,2.54-2.59,3.9-.28,3.2.2,6.45.23,9.68.02,2.15,0,4.34-.41,6.44-.54,2.65-2.45,4.03-5.33,3.88-2.97-.16-4.31-2.1-4.83-4.58-.21-1,.21-2.12.38-3.18,1.06-6.72-1.1-12.61-6.21-16.96-4.3-3.66-9.33-6.6-14.27-9.47-5.26-3.05-7.09-5.65-5.34-8.85,1.68-3.07,5.37-3.62,10.7-.71,5.22,2.86,10.09,6.32,15.01,9.68,3.31,2.26,4.5,2.25,5.87-1.32,2.47-6.44,3.11-13.13.22-19.55-3.06-6.78-7.51-12.62-13.98-16.96-5.43-3.64-6.11-3.67-8.6,2.06-5.82,13.45-15.84,22.3-30.67,25.52-4.28.93-6.38,3.07-8.07,6.73-1.51,3.26-3.73,6.39-6.32,8.93-1.13,1.11-4.34,1.29-5.95.56-1.21-.55-1.97-3.26-1.85-4.95.12-1.79,1.42-3.55,2.37-5.23,3.31-5.85,4.91-11.97,3.45-18.64-.6-2.73-1.13-5.48-1.59-8.24-.68-4.01.65-6.63,3.59-7.34,2.86-.69,5.54,1.04,6.82,4.87.88,2.65,1.21,5.47,1.81,8.21,1.02,4.69,2.18,5.3,6.91,3.67,14.48-5.01,23.15-19.15,20.77-33.85-2.72-16.75-20.72-28.36-37.8-24.38-14.77,3.45-24.71,15.25-24.77,29.89-.11,26.95-.03,53.89-.04,80.84Zm-12.38.69c0-7.76,0-15.53,0-23.29,0-19.63.21-39.25-.08-58.88-.32-21.43-23.86-36.37-45.38-26.24-11.61,5.46-17.7,15.03-17.33,27.7.38,12.88,7.17,21.91,19.16,27.32,6.63,2.99,7.46,2.53,9-4.12.39-1.68.72-3.38,1.12-5.06,1.28-5.31,3.81-7.81,7.05-7.03,3.32.8,4.49,3.84,3.13,9.25-2.52,10.05-2.59,19.58,4.55,28.24,2.31,2.8,1.69,5.6-.68,7.47-2.51,1.98-5.66,1.66-8.14-1.44-2.02-2.52-3.89-5.37-4.93-8.36-1.38-4-3.88-5.69-8.05-6.51-14.73-2.9-24.65-11.5-30.39-24.76-.43-.99-.91-1.97-1.28-2.99-1.03-2.81-3.04-3.28-5.12-1.42-4.57,4.06-9.45,7.97-13.17,12.7-5.73,7.28-7.02,15.63-3.6,24.46,1.89,4.87,2.69,5.07,6.87,2.06,4.64-3.34,9.35-6.65,14.36-9.43,4.89-2.71,9.37-2.1,10.88.68,1.7,3.14-.05,6.1-5.33,8.97-.78.42-1.64.73-2.36,1.23-4.15,2.89-8.61,5.47-12.3,8.83-4.58,4.17-6.6,9.64-5.85,15.86.66,5.49-.68,8.04-4.38,8.46-3.59.4-5.64-2.12-5.8-7.71-.13-4.3.36-8.63.06-12.91-.09-1.32-1.86-2.54-2.86-3.81-.87,1.11-2.14,2.1-2.53,3.34-3.18,9.98-3.17,20.01.59,29.82,2.43,6.33,2.8,8.6,9.88,3.18,6.98-5.34,15.27-7.03,24.08-5.46,3.8.68,6.03,3.23,5.87,6.05-.17,3.02-2.41,4.56-6.79,4.59-1.12,0-2.24-.07-3.35-.16-5.43-.43-10.06,1.32-14.29,4.52-8.34,6.31-11.05,15.15-11.02,24.65.03,13.29,3.4,22.72,17.94,28.02,5.8,2.12,6.8,1.47,8.11-4.4,3.07-13.76,10.78-24.14,24.44-29.59,4.96-1.98,6.69-4.56,6.43-9.66-.45-8.96,1.79-17.54,5.89-25.6,1.77-3.47,4.67-4.7,7.56-3.4,3.38,1.52,3.21,4.41,2.49,7.23-.48,1.87-1.46,3.61-2.15,5.43-6.88,18.16-2.44,33.55,13.14,45.56,1.05.81,2.28,1.44,3.18,2.37,1.8,1.86,2.78,3.95.95,6.37-1.78,2.36-4.05,3.47-6.95,2.16-1.6-.72-3.3-1.58-4.46-2.8-4.65-4.91-9.36-9.8-13.56-15.06-3.47-4.34-4.08-4.81-9.29-2.37-14.41,6.77-21.15,21.63-16.48,36.34,4.64,14.64,20.34,23.47,36.49,20.51,15.45-2.83,26.13-16.29,24.97-31.37-.22-2.79-.27-5.6-.27-8.4-.02-23.72-.01-47.45-.01-71.17Z"/>
  <text class="cls-1" transform="translate(156.5 305.69) scale(1.42 1)"><tspan x="0" y="0">ST</tspan></text>
</svg>